<?xml version="1.0" encoding="UTF-8" standalone="no"?>
<!DOCTYPE svg PUBLIC "-//W3C//DTD SVG 1.1//EN" "http://www.w3.org/Graphics/SVG/1.1/DTD/svg11.dtd">
<svg width="100%" height="100%" viewBox="0 0 600 600" version="1.1" xmlns="http://www.w3.org/2000/svg" xmlns:xlink="http://www.w3.org/1999/xlink" xml:space="preserve" xmlns:serif="http://www.serif.com/" style="fill-rule:evenodd;clip-rule:evenodd;stroke-linecap:round;stroke-linejoin:round;stroke-miterlimit:1.5;">
    <circle cx="300" cy="300" r="300" style="fill:rgb(248,110,123);"/>
    <clipPath id="_clip1">
        <circle cx="300" cy="300" r="300"/>
    </clipPath>
    <g clip-path="url(#_clip1)">
        <g transform="matrix(-1,-1.22465e-16,1.22465e-16,-1,600,600)">
            <path d="M0,0L600,600L0,600L0,0Z" style="fill:white;"/>
        </g>
    </g>
    <path d="M300,0C465.575,0 600,134.425 600,300C600,465.575 465.575,600 300,600C134.425,600 0,465.575 0,300C0,134.425 134.425,0 300,0ZM300,45C440.738,45 555,159.262 555,300C555,440.738 440.738,555 300,555C159.262,555 45,440.738 45,300C45,159.262 159.262,45 300,45Z"/>
    <g transform="matrix(0.799945,-0.200055,-0.200055,0.799945,122.199,122.199)">
        <path d="M128.937,128.937L463.844,463.844" style="fill:none;stroke:black;stroke-width:75.01px;"/>
    </g>
</svg>
