<?xml version="1.0" encoding="UTF-8" standalone="no"?>
<!DOCTYPE svg PUBLIC "-//W3C//DTD SVG 1.1//EN" "http://www.w3.org/Graphics/SVG/1.1/DTD/svg11.dtd">
<svg width="100%" height="100%" viewBox="0 0 600 600" version="1.1" xmlns="http://www.w3.org/2000/svg" xmlns:xlink="http://www.w3.org/1999/xlink" xml:space="preserve" xmlns:serif="http://www.serif.com/" style="fill-rule:evenodd;clip-rule:evenodd;stroke-linejoin:round;stroke-miterlimit:2;">
    <g transform="matrix(0.778775,-0.778775,0.778775,0.778775,-198.806,268.46)">
        <path d="M600,340.5C600,259.644 534.356,194 453.5,194L146.5,194C65.644,194 0,259.644 0,340.5C0,421.356 65.644,487 146.5,487L453.5,487C534.356,487 600,421.356 600,340.5Z" style="fill:rgb(255,108,108);"/>
        <clipPath id="_clip1">
            <path d="M600,340.5C600,259.644 534.356,194 453.5,194L146.5,194C65.644,194 0,259.644 0,340.5C0,421.356 65.644,487 146.5,487L453.5,487C534.356,487 600,421.356 600,340.5Z"/>
        </clipPath>
        <g clip-path="url(#_clip1)">
            <rect x="300" y="0" width="300" height="600" style="fill:rgb(108,200,255);"/>
        </g>
        <path d="M600,340.5C600,259.644 534.356,194 453.5,194L146.5,194C65.644,194 -0,259.644 -0,340.5C-0,421.356 65.644,487 146.5,487L453.5,487C534.356,487 600,421.356 600,340.5ZM563.179,340.5C563.179,401.034 514.034,450.179 453.5,450.179C453.5,450.179 146.5,450.179 146.5,450.179C85.966,450.179 36.821,401.034 36.821,340.5C36.821,279.966 85.966,230.821 146.5,230.821C146.5,230.821 453.5,230.821 453.5,230.821C514.034,230.821 563.179,279.966 563.179,340.5Z" style="fill:rgb(56,56,56);"/>
    </g>
</svg>
